<mxfile host="app.diagrams.net" modified="2023-08-22T14:45:57.962Z" agent="Mozilla/5.0 (X11; Linux x86_64) AppleWebKit/537.36 (KHTML, like Gecko) Chrome/113.0.0.0 Safari/537.36" version="21.6.8" etag="NX6A3yUJH_C87y8W8W4p" type="github">
  <diagram name="PÃ¡gina-1" id="XxGiG1Frrbb9neeGTQ59">
    <mxGraphModel>
      <root>
        <mxCell id="0" />
        <mxCell id="1" parent="0" />
      </root>
    </mxGraphModel>
  </diagram>
</mxfile>
